<?xml version="1.0" encoding="UTF-8"?>
<svg width="1024" height="1024" viewBox="0 0 1024 1024" xmlns="http://www.w3.org/2000/svg" role="img" aria-label="AT monogram logo">
  <title>AT monogram logo - Anastasia Tsypkaykina</title>
  <defs>
    <style type="text/css"><![CDATA[
      .stroke { fill: none; stroke-linecap: round; stroke-linejoin: round; }
      .fill { fill: #69B6E6; } /* light blue */
    ]]></style>
  </defs>

  <!-- Background transparent -->
  <rect width="100%" height="100%" fill="none"/>

  <!-- Large 'A' - constructed from path for a clean geometric look -->
  <path class="fill" d="M170 760 L300 300 L460 300 L590 760 L520 760 L470 560 L320 560 L270 760 Z" transform="translate(30,0) scale(1.2)"/>

  <!-- Large 'T' bar and stem -->
  <rect x="560" y="240" width="360" height="60" rx="10" ry="10" class="fill"/>
  <rect x="700" y="300" width="60" height="560" rx="10" ry="10" class="fill"/>

  <!-- Small angle brackets inside 'A' to hint at code: '<' ' / ' '>' grouped -->
  <!-- left bracket '<' -->
  <path class="fill" d="M300 620 L270 590 L300 560 L315 575 L295 595 L315 615 Z" transform="translate(30,0) scale(0.9)"/>
  <!-- forward slash (as a small tilted rectangle) -->
  <rect x="365" y="572" width="18" height="80" rx="9" transform="rotate(-20 374 612)" class="fill"/>
  <!-- right bracket '>' -->
  <path class="fill" d="M420 560 L450 590 L420 620 L405 605 L425 585 L405 565 Z" transform="translate(30,0) scale(0.9)"/>

</svg>
